<svg width="32" height="32" viewBox="0 0 32 32" fill="none" xmlns="http://www.w3.org/2000/svg">
<path d="M2.66675 10.6665C2.66675 9.60564 3.08818 8.58822 3.83832 7.83808C4.58847 7.08793 5.60588 6.6665 6.66675 6.6665H9.33341C10.3943 6.6665 11.4117 7.08793 12.1618 7.83808C12.912 8.58822 13.3334 9.60564 13.3334 10.6665V11.9998C13.3334 19.9998 10.6294 25.3332 4.00008 25.3332C9.33341 20.0505 8.00008 17.3332 8.00008 17.3332H6.66675C5.60588 17.3332 4.58847 16.9117 3.83832 16.1616C3.08818 15.4115 2.66675 14.394 2.66675 13.3332L2.66675 10.6665Z" stroke="#161616" stroke-width="3" stroke-miterlimit="10" stroke-linejoin="round"/>
<path d="M18.6667 10.6665C18.6667 9.60564 19.0882 8.58822 19.8383 7.83808C20.5885 7.08793 21.6059 6.6665 22.6667 6.6665H25.3334C26.3943 6.6665 27.4117 7.08793 28.1618 7.83808C28.912 8.58822 29.3334 9.60564 29.3334 10.6665V11.9998C29.3334 19.9998 26.6294 25.3332 20.0001 25.3332C25.3334 20.0505 24.0001 17.3332 24.0001 17.3332H22.6667C21.6059 17.3332 20.5885 16.9117 19.8383 16.1616C19.0882 15.4115 18.6667 14.394 18.6667 13.3332V10.6665Z" stroke="#161616" stroke-width="3" stroke-miterlimit="10" stroke-linejoin="round"/>
</svg>
