<svg width="32" height="32" viewBox="0 0 32 32" fill="none" xmlns="http://www.w3.org/2000/svg">
<path d="M29.3333 21.3335C29.3333 22.3944 28.9119 23.4118 28.1617 24.1619C27.4116 24.9121 26.3942 25.3335 25.3333 25.3335H22.6666C21.6058 25.3335 20.5884 24.9121 19.8382 24.1619C19.0881 23.4118 18.6666 22.3944 18.6666 21.3335V20.0002C18.6666 12.0002 21.3706 6.66683 28 6.66683C22.6666 11.9495 24 14.6668 24 14.6668H25.3333C26.3942 14.6668 27.4116 15.0883 28.1617 15.8384C28.9119 16.5885 29.3333 17.606 29.3333 18.6668V21.3335Z" stroke="#161616" stroke-width="3" stroke-miterlimit="10" stroke-linejoin="round"/>
<path d="M13.3333 21.3335C13.3333 22.3944 12.9119 23.4118 12.1617 24.1619C11.4116 24.9121 10.3942 25.3335 9.33331 25.3335H6.66665C5.60578 25.3335 4.58836 24.9121 3.83822 24.1619C3.08807 23.4118 2.66665 22.3944 2.66665 21.3335V20.0002C2.66665 12.0002 5.37065 6.66683 12 6.66683C6.66665 11.9495 7.99998 14.6668 7.99998 14.6668H9.33331C10.3942 14.6668 11.4116 15.0883 12.1617 15.8384C12.9119 16.5885 13.3333 17.606 13.3333 18.6668V21.3335Z" stroke="#161616" stroke-width="3" stroke-miterlimit="10" stroke-linejoin="round"/>
</svg>
