<svg width="69" height="68" viewBox="0 0 69 68" fill="none" xmlns="http://www.w3.org/2000/svg">
<rect x="0.5" width="68" height="68" rx="34" fill="white"/>
<path d="M49.5 23.1667C49.5 37.434 37.934 49 23.6667 49C23.023 49 22.3848 48.9765 21.7529 48.9302C21.0277 48.877 20.6651 48.8505 20.335 48.6605C20.0617 48.5032 19.8024 48.2242 19.6654 47.94C19.5 47.597 19.5 47.1968 19.5 46.3967V41.7012C19.5 41.0282 19.5 40.6917 19.6108 40.4033C19.7086 40.1485 19.8675 39.9217 20.0735 39.7427C20.3067 39.54 20.6229 39.425 21.2553 39.195L26.6001 37.2515C27.3359 36.984 27.7038 36.8502 28.0528 36.8728C28.3606 36.8928 28.6568 36.998 28.9084 37.1763C29.1938 37.3785 29.3952 37.7142 29.798 38.3857L31.1667 40.6667C35.5832 38.6665 39.1635 35.0815 41.1667 30.6667L38.8857 29.298C38.2142 28.8952 37.8785 28.6938 37.6763 28.4084C37.498 28.1568 37.3928 27.8606 37.3728 27.5528C37.3502 27.2038 37.484 26.8359 37.7515 26.1001L39.695 20.7553C39.925 20.1229 40.04 19.8067 40.2427 19.5735C40.4217 19.3675 40.6485 19.2086 40.9033 19.1108C41.1917 19 41.5282 19 42.2012 19H46.8967C47.6968 19 48.097 19 48.44 19.1654C48.7242 19.3024 49.0032 19.5617 49.1605 19.835C49.3505 20.1651 49.377 20.5277 49.4302 21.2529C49.4765 21.8848 49.5 22.523 49.5 23.1667Z" stroke="#3A3A3A" stroke-width="4" stroke-linecap="round" stroke-linejoin="round"/>
</svg>
