<svg width="20" height="20" viewBox="0 0 20 20" fill="none" xmlns="http://www.w3.org/2000/svg">
<path fill-rule="evenodd" clip-rule="evenodd" d="M11.5506 5.93037C10.5539 5.93037 9.80644 6.67782 9.80644 7.67455V10.8141H8.25605V11.5893H9.80644V17.1707H10.9692V11.5118H12.9842L13.1474 10.7366H10.9692V7.90711C10.9692 7.73997 11.0114 7.50783 11.1977 7.32159C11.3839 7.13534 11.616 7.09316 11.7832 7.09316H13.2948V5.93037H11.5506ZM8.64365 7.67455C8.64365 6.03563 9.9117 4.76758 11.5506 4.76758H13.6437C13.8108 4.76758 14.0429 4.80976 14.2292 4.99601C14.4154 5.18225 14.4576 5.41439 14.4576 5.58153V7.442C14.4576 7.60913 14.4154 7.84127 14.2292 8.02752C14.0429 8.21377 13.8108 8.25595 13.6437 8.25595H12.132V9.57378H13.5661C13.8692 9.57378 14.0962 9.73744 14.2243 9.92958C14.3409 10.1045 14.3801 10.3015 14.3801 10.4653V10.5258L14.0637 12.0287C14.0402 12.1953 13.9563 12.3137 13.9025 12.3758C13.8345 12.4544 13.7588 12.5083 13.7005 12.5433C13.6006 12.6032 13.4378 12.6746 13.2561 12.6746H12.132V18.3335H8.64365V12.7521H7.90722C7.74008 12.7521 7.50794 12.7099 7.32169 12.5236C7.13544 12.3374 7.09326 12.1053 7.09326 11.9381V10.4653C7.09326 10.2981 7.13544 10.066 7.32169 9.87973C7.50794 9.69348 7.74008 9.6513 7.90722 9.6513H8.64365V7.67455Z" fill="#161616"/>
<path fill-rule="evenodd" clip-rule="evenodd" d="M3.91888 3.91894C3.20917 4.62866 2.82948 5.79386 2.82948 7.6745V12.3257C2.82948 14.2063 3.20917 15.3715 3.91888 16.0812C4.62859 16.7909 5.7938 17.1706 7.67444 17.1706H12.3256C14.2062 17.1706 15.3714 16.7909 16.0812 16.0812C16.7909 15.3715 17.1706 14.2063 17.1706 12.3257V7.6745C17.1706 5.79386 16.7909 4.62866 16.0812 3.91894C15.3714 3.20923 14.2062 2.82954 12.3256 2.82954H7.67444C5.7938 2.82954 4.62859 3.20923 3.91888 3.91894ZM3.09666 3.09672C4.13114 2.06225 5.67911 1.66675 7.67444 1.66675H12.3256C14.3209 1.66675 15.8689 2.06225 16.9034 3.09672C17.9378 4.1312 18.3334 5.67917 18.3334 7.6745V12.3257C18.3334 14.321 17.9378 15.869 16.9034 16.9034C15.8689 17.9379 14.3209 18.3334 12.3256 18.3334H7.67444C5.67911 18.3334 4.13114 17.9379 3.09666 16.9034C2.06219 15.869 1.66669 14.321 1.66669 12.3257V7.6745C1.66669 5.67917 2.06219 4.1312 3.09666 3.09672Z" fill="#161616"/>
</svg>
