<svg width="20" height="20" viewBox="0 0 20 20" fill="none" xmlns="http://www.w3.org/2000/svg">
<path d="M7.9675 18.3334H5.52848C5.19514 18.3334 4.91872 18.0698 4.91872 17.752V16.0078H2.27644C1.94311 16.0078 1.66669 15.7443 1.66669 15.4264V4.57372C1.66669 4.45745 1.69921 4.34891 1.77238 4.24813L3.3984 1.92255C3.51222 1.75976 3.69921 1.66675 3.90246 1.66675H17.7236C18.0569 1.66675 18.3334 1.93031 18.3334 2.24814V11.5505C18.3334 11.7055 18.2683 11.8528 18.1545 11.9613L14.0894 15.8373C13.9756 15.9458 13.8212 16.0078 13.6586 16.0078H9.91871L8.47156 18.0776C8.35774 18.2326 8.17075 18.3334 7.9675 18.3334ZM6.13823 17.1706H7.6423L9.08945 15.1008C9.20328 14.9381 9.39026 14.845 9.59352 14.845H13.4065L17.1138 11.3102V2.82954H4.22766L2.8862 4.75203V14.845H5.52848C5.86181 14.845 6.13823 15.1086 6.13823 15.4264V17.1706Z" fill="#161616"/>
<path d="M9.18707 11.3567H7.56105C7.22772 11.3567 6.95129 11.0931 6.95129 10.7753V6.12412C6.95129 5.80629 7.22772 5.54272 7.56105 5.54272H9.18707C9.5204 5.54272 9.79682 5.80629 9.79682 6.12412V10.7753C9.79682 11.0931 9.5204 11.3567 9.18707 11.3567ZM8.17081 10.1939H8.57731V6.70552H8.17081V10.1939Z" fill="#161616"/>
<path d="M13.2524 11.3567H11.6264C11.293 11.3567 11.0166 11.0931 11.0166 10.7753V6.12412C11.0166 5.80629 11.293 5.54272 11.6264 5.54272H13.2524C13.5857 5.54272 13.8621 5.80629 13.8621 6.12412V10.7753C13.8621 11.0931 13.5857 11.3567 13.2524 11.3567ZM12.2361 10.1939H12.6426V6.70552H12.2361V10.1939Z" fill="#161616"/>
</svg>
