<svg width="20" height="20" viewBox="0 0 20 20" fill="none" xmlns="http://www.w3.org/2000/svg">
<path fill-rule="evenodd" clip-rule="evenodd" d="M3.09666 3.09672C4.13114 2.06225 5.67911 1.66675 7.67444 1.66675H12.3256C14.3209 1.66675 15.8689 2.06225 16.9034 3.09672C17.9378 4.1312 18.3334 5.67917 18.3334 7.6745V12.3257C18.3334 14.321 17.9378 15.869 16.9034 16.9034C15.8689 17.9379 14.3209 18.3334 12.3256 18.3334H7.67444C5.67911 18.3334 4.13114 17.9379 3.09666 16.9034C2.06219 15.869 1.66669 14.321 1.66669 12.3257V7.6745C1.66669 5.67917 2.06219 4.1312 3.09666 3.09672ZM3.91888 3.91894C3.20917 4.62866 2.82948 5.79386 2.82948 7.6745V12.3257C2.82948 14.2063 3.20917 15.3715 3.91888 16.0812C4.62859 16.7909 5.7938 17.1706 7.67444 17.1706H12.3256C14.2062 17.1706 15.3714 16.7909 16.0812 16.0812C16.7909 15.3715 17.1706 14.2063 17.1706 12.3257V7.6745C17.1706 5.79386 16.7909 4.62866 16.0812 3.91894C15.3714 3.20923 14.2062 2.82954 12.3256 2.82954H7.67444C5.7938 2.82954 4.62859 3.20923 3.91888 3.91894Z" fill="#161616"/>
<path fill-rule="evenodd" clip-rule="evenodd" d="M10.0001 7.86836C8.82273 7.86836 7.8683 8.82279 7.8683 10.0001C7.8683 11.1775 8.82273 12.1319 10.0001 12.1319C11.1774 12.1319 12.1319 11.1775 12.1319 10.0001C12.1319 8.82279 11.1774 7.86836 10.0001 7.86836ZM6.70551 10.0001C6.70551 8.1806 8.18054 6.70557 10.0001 6.70557C11.8196 6.70557 13.2947 8.1806 13.2947 10.0001C13.2947 11.8197 11.8196 13.2947 10.0001 13.2947C8.18054 13.2947 6.70551 11.8197 6.70551 10.0001Z" fill="#161616"/>
<path fill-rule="evenodd" clip-rule="evenodd" d="M13.5939 6.12407C13.5939 5.69594 13.941 5.34888 14.3691 5.34888H14.3781C14.8062 5.34888 15.1533 5.69594 15.1533 6.12407C15.1533 6.5522 14.8062 6.89926 14.3781 6.89926H14.3691C13.941 6.89926 13.5939 6.5522 13.5939 6.12407Z" fill="#161616"/>
</svg>
