<svg width="24" height="24" viewBox="0 0 24 24" fill="none" xmlns="http://www.w3.org/2000/svg">
<path fill-rule="evenodd" clip-rule="evenodd" d="M3.2551 3.2551C3.59523 2.91497 4.1467 2.91497 4.48684 3.2551L11.9464 10.7147L19.519 3.28264C19.8623 2.9457 20.4137 2.95087 20.7506 3.29417C21.0876 3.63747 21.0824 4.18891 20.7391 4.52585L13.1782 11.9465L20.7449 19.5132C21.085 19.8533 21.085 20.4048 20.7449 20.7449C20.4048 21.085 19.8533 21.085 19.5132 20.7449L11.935 13.1667L4.48104 20.4823C4.13774 20.8193 3.5863 20.8141 3.24936 20.4708C2.91243 20.1275 2.91759 19.576 3.26089 19.2391L10.7032 11.9349L3.2551 4.48684C2.91497 4.1467 2.91497 3.59523 3.2551 3.2551Z" fill="#161616"/>
</svg>
