<svg width="21" height="20" viewBox="0 0 21 20" fill="none" xmlns="http://www.w3.org/2000/svg">
<path d="M7.89594 13.0504C7.71915 13.0504 7.54237 12.9852 7.4028 12.8457C6.63983 12.0828 6.22113 11.0687 6.22113 9.99885C6.22113 7.77533 8.0262 5.97047 10.25 5.97047C11.32 5.97047 12.3342 6.38912 13.0971 7.152C13.2274 7.28225 13.3018 7.45902 13.3018 7.64508C13.3018 7.83115 13.2274 8.00792 13.0971 8.13817L8.38908 12.8457C8.24951 12.9852 8.07272 13.0504 7.89594 13.0504ZM10.25 7.36598C8.79847 7.36598 7.6168 8.54751 7.6168 9.99885C7.6168 10.464 7.73776 10.9106 7.96107 11.3013L11.5526 7.71021C11.1618 7.48693 10.7152 7.36598 10.25 7.36598Z" fill="#161616"/>
<path d="M4.29516 16.0554C4.13698 16.0554 3.9695 15.9995 3.83924 15.8879C2.84366 15.0413 1.95043 13.9993 1.18746 12.7899C0.201185 11.2548 0.201185 8.75219 1.18746 7.20782C3.45776 3.65392 6.76085 1.60717 10.25 1.60717C12.297 1.60717 14.3161 2.31423 16.0839 3.64462C16.391 3.8772 16.4561 4.31446 16.2235 4.62148C15.9909 4.92849 15.5536 4.99361 15.2465 4.76103C13.7206 3.6074 11.99 3.00268 10.25 3.00268C7.24468 3.00268 4.3696 4.80754 2.35983 7.9614C1.66199 9.0499 1.66199 10.9478 2.35983 12.0363C3.05766 13.1248 3.85785 14.0644 4.74178 14.8273C5.03021 15.0785 5.06743 15.5158 4.81621 15.8135C4.68595 15.9716 4.49055 16.0554 4.29516 16.0554Z" fill="#161616"/>
<path d="M10.25 18.3905C9.01252 18.3905 7.80293 18.1393 6.63987 17.6462C6.2863 17.4974 6.11882 17.088 6.26769 16.7345C6.41657 16.381 6.82596 16.2135 7.17953 16.3624C8.16581 16.781 9.19861 16.995 10.2407 16.995C13.2461 16.995 16.1211 15.1901 18.1309 12.0363C18.8288 10.9478 18.8288 9.04989 18.1309 7.96139C17.8425 7.50552 17.5261 7.06826 17.1912 6.65891C16.9492 6.3612 16.9958 5.92394 17.2935 5.67275C17.5913 5.43086 18.0286 5.46807 18.2798 5.77509C18.6427 6.22165 18.9962 6.70543 19.3126 7.20781C20.2989 8.74287 20.2989 11.2455 19.3126 12.7899C17.0423 16.3438 13.7392 18.3905 10.25 18.3905Z" fill="#161616"/>
<path d="M10.892 13.9714C10.5664 13.9714 10.2686 13.7388 10.2035 13.4039C10.1291 13.0224 10.3803 12.6596 10.7618 12.5945C11.7853 12.4084 12.6413 11.5525 12.8274 10.5291C12.9018 10.1477 13.2647 9.90581 13.6462 9.97093C14.0276 10.0454 14.2789 10.4082 14.2044 10.7896C13.9067 12.3991 12.6227 13.6737 11.0223 13.9714C10.9758 13.9621 10.9386 13.9714 10.892 13.9714Z" fill="#161616"/>
<path d="M0.94551 20C0.768725 20 0.59194 19.9349 0.452373 19.7953C0.182542 19.5255 0.182542 19.079 0.452373 18.8092L7.40282 11.8595C7.67265 11.5897 8.11927 11.5897 8.3891 11.8595C8.65893 12.1293 8.65891 12.5759 8.38908 12.8457L1.43865 19.7953C1.29908 19.9349 1.1223 20 0.94551 20Z" fill="#161616"/>
<path d="M12.6041 8.34283C12.4273 8.34283 12.2505 8.27771 12.1109 8.13815C11.8411 7.86836 11.8411 7.42179 12.1109 7.15199L19.0614 0.202349C19.3312 -0.0674497 19.7778 -0.0674497 20.0477 0.202349C20.3175 0.472148 20.3175 0.918711 20.0477 1.18851L13.0971 8.13817C12.9576 8.27772 12.7808 8.34283 12.6041 8.34283Z" fill="#161616"/>
</svg>
