<svg width="46" height="60" viewBox="0 0 46 60" fill="none" xmlns="http://www.w3.org/2000/svg">
<path d="M45 21.3136C45 23.6944 43.8649 27.2481 41.9844 31.3543C40.1232 35.4184 37.5976 39.8863 34.9557 44.0424C32.3138 48.1986 29.5711 52.0188 27.2846 54.7895C26.1389 56.1778 25.1252 57.2814 24.3083 58.0289C23.8984 58.404 23.5605 58.6686 23.2978 58.8335C23.1393 58.9329 23.0433 58.9736 23 58.99C22.9567 58.9736 22.8607 58.9329 22.7022 58.8335C22.4395 58.6686 22.1016 58.404 21.6917 58.0289C20.8748 57.2814 19.8611 56.1778 18.7154 54.7895C16.4289 52.0188 13.6862 48.1986 11.0443 44.0424C8.40242 39.8863 5.87677 35.4184 4.01557 31.3543C2.13508 27.2481 1 23.6944 1 21.3136C1 11.4393 10.8169 1 23 1C35.1831 1 45 11.4393 45 21.3136Z" fill="white" stroke="#238890" stroke-width="2"/>
<path opacity="0.3" fill-rule="evenodd" clip-rule="evenodd" d="M24.7133 10.0835C31.6365 10.1247 37.9486 14.9242 39.9289 22.2479C41.7827 29.1034 37.9499 35.6502 32.8015 39.9955C27.1162 44.794 19.6933 48.7687 13.781 44.3173C7.47238 39.5676 6.44556 30.0141 8.98446 22.0637C11.3259 14.7317 17.6712 10.0416 24.7133 10.0835Z" fill="#8AF5FE"/>
<path opacity="0.5" fill-rule="evenodd" clip-rule="evenodd" d="M15.5311 3.72811C17.5488 4.04753 19.1587 5.67844 19.3831 7.8269C19.5932 9.83802 18.1592 11.5094 16.4476 12.503C14.5575 13.6002 12.2002 14.3884 10.6901 12.8731C9.07884 11.2564 9.24019 8.523 10.3644 6.39918C11.4013 4.44053 13.4787 3.4032 15.5311 3.72811Z" fill="#DCFCFF"/>
<mask id="mask0_1040_3572" style="mask-type:alpha" maskUnits="userSpaceOnUse" x="7" y="22" width="34" height="25">
<path fill-rule="evenodd" clip-rule="evenodd" d="M25.9541 33.8489C32.8772 33.8901 33.2762 28.7407 39.9289 22.2481C41.7827 29.1036 37.9499 35.6504 32.8015 39.9958C27.1162 44.7942 19.6933 48.769 13.781 44.3175C7.47238 39.5678 6.44556 30.0143 8.98446 22.064C14.5804 27.7283 18.912 33.807 25.9541 33.8489Z" fill="#EED2B4"/>
</mask>
<g mask="url(#mask0_1040_3572)">
<path d="M16.7585 20.2815L9.94225 45.8069L37.6688 46.7349L30.4418 30.897L26.2687 19.8101C24.5558 15.2594 18.013 15.5837 16.7585 20.2815Z" fill="#9CCED2"/>
</g>
<path d="M16.7925 19.2932L11.9935 38.4039L32.349 34.9524L30.4428 30.8955L26.3771 18.9053C24.7759 14.1833 18.0069 14.4573 16.7925 19.2932Z" fill="#9CCED2"/>
<path d="M21.4148 17.6955C19.3451 19.2209 18.1669 18.8036 17.1812 18.181C17.1145 18.1388 17.0832 18.0583 17.1025 17.9817L17.3582 16.9658C18.4082 12.793 24.2484 12.5558 25.6335 16.6297C25.6877 16.7891 25.4965 16.9357 25.346 16.8603C24.4577 16.4152 23.2253 16.361 21.4148 17.6955Z" fill="#FFFCF2"/>
<mask id="mask1_1040_3572" style="mask-type:alpha" maskUnits="userSpaceOnUse" x="7" y="22" width="34" height="25">
<path fill-rule="evenodd" clip-rule="evenodd" d="M25.9541 33.8489C32.8772 33.8901 33.2762 28.7407 39.9289 22.2481C41.7826 29.1036 37.9499 35.6504 32.8015 39.9958C27.1162 44.7942 19.6933 48.769 13.781 44.3175C7.47238 39.5678 6.44556 30.0143 8.98446 22.064C14.5804 27.7283 18.912 33.807 25.9541 33.8489Z" fill="#9CCED2"/>
</mask>
<g mask="url(#mask1_1040_3572)">
<path d="M28.0759 33.6253L22.83 46.2039L34.957 46.3611C38.5238 46.4073 40.9903 42.8108 39.6623 39.5001L37.3313 33.6885C35.665 29.5345 29.7987 29.4944 28.0759 33.6253Z" fill="#52AAB1"/>
</g>
<path d="M29.4876 29.8431L27.7258 34.4557H32.6634C35.1012 34.4557 36.7467 31.9657 35.7908 29.7231C34.5919 26.9102 30.5786 26.9866 29.4876 29.8431Z" fill="#73B7BC"/>
<path d="M32.4351 31.07C31.0011 32.1129 29.8017 31.1437 29.0831 30.659C29.0261 30.6205 29.0008 30.5494 29.0216 30.4839L29.1221 30.1669C30.152 26.9183 34.6595 26.6844 36.0201 29.809C36.0798 29.9463 35.8888 30.1302 35.7423 30.0998C34.9436 29.9347 33.6377 30.1954 32.4351 31.07Z" fill="white"/>
<path d="M15.591 30.4571L15.6675 30.9359L15.8593 31.3689L15.4389 31.2213L14.9924 31.2042L15.3364 30.873L15.591 30.4571Z" fill="#52AAB1"/>
<path d="M25.0302 40.0899L25.1066 40.5687L25.2984 41.0017L24.878 40.8541L24.4315 40.8371L24.7755 40.5058L25.0302 40.0899Z" fill="#52AAB1"/>
<path d="M19.1724 34.2918L19.2488 34.7706L19.4406 35.2036L19.0202 35.056L18.5737 35.039L18.9177 34.7077L19.1724 34.2918Z" fill="#52AAB1"/>
<path d="M22.5859 13.3976L23.0037 13.8691L23.5084 14.2188L22.9688 14.3218L22.4947 14.5826L22.6165 14.0081L22.5859 13.3976Z" fill="#52AAB1"/>
<path d="M17.4214 15.6196L17.6375 15.8635L17.8986 16.0444L17.6195 16.0977L17.3743 16.2326L17.4373 15.9354L17.4214 15.6196Z" fill="#52AAB1"/>
<path d="M25.7166 4.84169L25.748 5.26045L25.8825 5.64683L25.5294 5.49279L25.1443 5.44996L25.466 5.18525L25.7166 4.84169Z" fill="#52AAB1"/>
<path d="M36.7079 7.60341L36.7393 8.02217L36.8739 8.40855L36.5207 8.25451L36.1356 8.21168L36.4573 7.94697L36.7079 7.60341Z" fill="#52AAB1"/>
<path d="M34.0786 28.7425L34.1358 29.347L34.3411 29.9021L33.8265 29.6881L33.2688 29.6357L33.7262 29.2452L34.0786 28.7425Z" fill="#0AA4B0"/>
<path d="M12.5015 22.335L12.4964 22.675L12.5771 22.9953L12.3029 22.8486L11.9949 22.7897L12.2741 22.5964L12.5015 22.335Z" fill="#52AAB1"/>
<path d="M16.4063 29.6983L16.4012 30.0383L16.4818 30.3586L16.2077 30.2119L15.8996 30.153L16.1788 29.9597L16.4063 29.6983Z" fill="#A1E8EE"/>
<path d="M21.2884 36.1407L21.2833 36.4806L21.3639 36.801L21.0898 36.6543L20.7817 36.5954L21.0609 36.4021L21.2884 36.1407Z" fill="#A1E8EE"/>
</svg>
