<svg width="31" height="40" viewBox="0 0 31 40" fill="none" xmlns="http://www.w3.org/2000/svg">
<path d="M29.6667 14.2091C29.6667 15.7183 28.9386 18.0303 27.6866 20.7641C26.4538 23.4558 24.7782 26.4207 23.0225 29.1828C21.2667 31.945 19.4462 34.48 17.9326 36.3142C17.1734 37.2341 16.5088 37.9566 15.9805 38.44C15.7149 38.6831 15.5062 38.8449 15.3547 38.94C15.3472 38.9446 15.3401 38.949 15.3333 38.9532C15.3265 38.949 15.3194 38.9446 15.312 38.94C15.1605 38.8449 14.9518 38.6831 14.6862 38.44C14.1579 37.9566 13.4932 37.2341 12.734 36.3142C11.2204 34.48 9.39994 31.945 7.64416 29.1828C5.88843 26.4207 4.21282 23.4558 2.98011 20.7641C1.72811 18.0303 1 15.7183 1 14.2091C1 7.82105 7.38446 1 15.3333 1C23.2822 1 29.6667 7.82105 29.6667 14.2091Z" fill="white" stroke="#238890" stroke-width="2"/>
<path opacity="0.3" fill-rule="evenodd" clip-rule="evenodd" d="M16.4756 6.72211C21.091 6.74957 25.2991 9.9492 26.6193 14.8317C27.8551 19.402 25.2999 23.7666 21.8677 26.6635C18.0775 29.8624 13.1289 32.5122 9.18733 29.5446C4.98161 26.3781 4.29706 20.0092 5.98966 14.7089C7.55064 9.82086 11.7808 6.69418 16.4756 6.72211Z" fill="#8AF5FE"/>
<path opacity="0.5" fill-rule="evenodd" clip-rule="evenodd" d="M10.3541 2.48516C11.6992 2.69811 12.7725 3.78538 12.9221 5.21769C13.0621 6.55843 12.1061 7.67272 10.965 8.3351C9.70499 9.06656 8.13347 9.59201 7.12675 8.58185C6.05257 7.50401 6.16013 5.68175 6.90964 4.26588C7.60085 2.96011 8.9858 2.26855 10.3541 2.48516Z" fill="#DCFCFF"/>
<mask id="mask0_1438_860" style="mask-type:alpha" maskUnits="userSpaceOnUse" x="5" y="14" width="22" height="17">
<path fill-rule="evenodd" clip-rule="evenodd" d="M17.3027 22.5659C21.9182 22.5933 22.1842 19.1604 26.6193 14.832C27.8551 19.4023 25.2999 23.7669 21.8677 26.6638C18.0775 29.8628 13.1289 32.5126 9.18733 29.5449C4.98161 26.3785 4.29706 20.0095 5.98966 14.7092C9.72026 18.4855 12.608 22.5379 17.3027 22.5659Z" fill="#EED2B4"/>
</mask>
<g mask="url(#mask0_1438_860)">
<path d="M9.83215 18.5398L6.62817 30.538L25.1125 31.1567L20.2945 20.5981L19.3424 18.0684C17.6295 13.5177 11.0866 13.842 9.83215 18.5398Z" fill="#9CCED2"/>
</g>
<path d="M9.81703 18.3493L7.99567 25.6023L21.566 23.3014L20.2952 20.5968L19.4016 17.9615C17.8005 13.2395 11.0314 13.5134 9.81703 18.3493Z" fill="#9CCED2"/>
<path d="M14.2766 11.7969C12.8968 12.8139 12.1113 12.5356 11.4542 12.1206C11.4097 12.0925 11.3889 12.0388 11.4017 11.9878L11.5721 11.3104C12.2722 8.52859 16.1657 8.37045 17.089 11.0864C17.1251 11.1926 16.9977 11.2904 16.8974 11.2401C16.3052 10.9434 15.4836 10.9073 14.2766 11.7969Z" fill="#FFFCF2"/>
<mask id="mask1_1438_860" style="mask-type:alpha" maskUnits="userSpaceOnUse" x="5" y="14" width="22" height="17">
<path fill-rule="evenodd" clip-rule="evenodd" d="M17.3027 22.5659C21.9182 22.5933 22.1842 19.1604 26.6193 14.832C27.8551 19.4023 25.2999 23.7669 21.8677 26.6638C18.0775 29.8628 13.1289 32.5126 9.18733 29.5449C4.98161 26.3785 4.29706 20.0095 5.98966 14.7092C9.72026 18.4855 12.608 22.5379 17.3027 22.5659Z" fill="#9CCED2"/>
</mask>
<g mask="url(#mask1_1438_860)">
<path d="M17.7214 24.8047L15.22 30.8024L21.7178 30.8866C24.8507 30.9272 27.0172 27.7682 25.8508 24.8602C24.3872 21.2115 19.2346 21.1763 17.7214 24.8047Z" fill="#52AAB1"/>
</g>
<path d="M19.6584 19.8953L18.4839 22.9704H21.7757C23.4008 22.9704 24.4978 21.3104 23.8606 19.8153C23.0613 17.9401 20.3858 17.991 19.6584 19.8953Z" fill="#73B7BC"/>
<path d="M21.6234 20.7132C20.6674 21.4084 19.8679 20.7623 19.3888 20.4391C19.3508 20.4135 19.3339 20.3661 19.3478 20.3224L19.4148 20.1111C20.1014 17.9454 23.1064 17.7895 24.0134 19.8725C24.0532 19.964 23.9259 20.0866 23.8282 20.0664C23.2957 19.9563 22.4252 20.1301 21.6234 20.7132Z" fill="white"/>
<path d="M10.394 20.3046L10.445 20.6238L10.5729 20.9124L10.2926 20.814L9.99494 20.8027L10.2243 20.5819L10.394 20.3046Z" fill="#52AAB1"/>
<path d="M16.6868 26.7264L16.7377 27.0456L16.8656 27.3343L16.5853 27.2359L16.2877 27.2245L16.517 27.0037L16.6868 26.7264Z" fill="#52AAB1"/>
<path d="M12.7815 22.861L12.8325 23.1802L12.9604 23.4688L12.6801 23.3704L12.3825 23.3591L12.6118 23.1382L12.7815 22.861Z" fill="#52AAB1"/>
<path d="M15.0573 8.9315L15.3358 9.24584L15.6723 9.47894L15.3126 9.54759L14.9965 9.72149L15.0777 9.33849L15.0573 8.9315Z" fill="#52AAB1"/>
<path d="M11.6143 10.4129L11.7584 10.5755L11.9324 10.6961L11.7464 10.7316L11.5828 10.8216L11.6248 10.6234L11.6143 10.4129Z" fill="#52AAB1"/>
<path d="M17.1444 3.22739L17.1653 3.50656L17.255 3.76415L17.0196 3.66145L16.7629 3.6329L16.9773 3.45643L17.1444 3.22739Z" fill="#52AAB1"/>
<path d="M24.4719 5.0687L24.4929 5.34787L24.5826 5.60546L24.3472 5.50276L24.0904 5.47421L24.3049 5.29774L24.4719 5.0687Z" fill="#52AAB1"/>
<path d="M22.7191 19.1614L22.7572 19.5644L22.8941 19.9345L22.551 19.7918L22.1792 19.7569L22.4841 19.4965L22.7191 19.1614Z" fill="#0AA4B0"/>
<path d="M8.33436 14.8897L8.33099 15.1163L8.38473 15.3299L8.20198 15.2321L7.99662 15.1928L8.18275 15.064L8.33436 14.8897Z" fill="#52AAB1"/>
<path d="M10.9375 19.7986L10.9341 20.0253L10.9879 20.2388L10.8051 20.141L10.5998 20.1017L10.7859 19.9729L10.9375 19.7986Z" fill="#A1E8EE"/>
<path d="M14.1922 24.0936L14.1888 24.3202L14.2426 24.5337L14.0598 24.436L13.8545 24.3967L14.0406 24.2678L14.1922 24.0936Z" fill="#A1E8EE"/>
</svg>
