<svg width="24" height="24" viewBox="0 0 24 24" fill="none" xmlns="http://www.w3.org/2000/svg">
<path fill-rule="evenodd" clip-rule="evenodd" d="M21 4.5C21 4.77614 20.7761 5 20.5 5H3.5C3.22386 5 3 4.77614 3 4.5C3 4.22386 3.22386 4 3.5 4H20.5C20.7761 4 21 4.22386 21 4.5Z" fill="#161616"/>
<path fill-rule="evenodd" clip-rule="evenodd" d="M21 11.5C21 11.7761 20.7761 12 20.5 12H3.5C3.22386 12 3 11.7761 3 11.5C3 11.2239 3.22386 11 3.5 11H20.5C20.7761 11 21 11.2239 21 11.5Z" fill="#161616"/>
<path fill-rule="evenodd" clip-rule="evenodd" d="M21 18.5C21 18.7761 20.7761 19 20.5 19H3.5C3.22386 19 3 18.7761 3 18.5C3 18.2239 3.22386 18 3.5 18H20.5C20.7761 18 21 18.2239 21 18.5Z" fill="#161616"/>
</svg>
