<svg width="24" height="181" viewBox="0 0 24 181" fill="none" xmlns="http://www.w3.org/2000/svg">
<circle cx="12" cy="3" r="3" fill="#838383"/>
<circle cx="12" cy="178" r="3" fill="#838383"/>
<path d="M12 10C12 23.9701 12 59.1542 12 75" stroke="#C4C4C4" stroke-linecap="round"/>
<path d="M12 107C12 120.755 12 155.398 12 171" stroke="#C4C4C4" stroke-linecap="round"/>
<path d="M16.48 101H7.52001C5.58172 101 4 99.3907 4 97.4186V84.5814C4 82.6093 5.58172 81 7.52001 81H16.48C18.4183 81 20 82.6093 20 84.5814V97.4186C20 99.3907 18.4183 101 16.48 101ZM7.52001 82.3953C6.34058 82.3953 5.37143 83.3721 5.37143 84.5814V97.4186C5.37143 98.6186 6.33143 99.6047 7.52001 99.6047H16.48C17.6594 99.6047 18.6286 98.6279 18.6286 97.4186V84.5814C18.6286 83.3814 17.6686 82.3953 16.48 82.3953H7.52001Z" fill="#161616"/>
<path d="M17.9429 92.6278H6.05714C4.92343 92.6278 4 91.6883 4 90.5348V88.6743C4 87.5208 4.92343 86.5813 6.05714 86.5813H17.9429C19.0766 86.5813 20 87.5208 20 88.6743V90.5348C20 91.6883 19.0766 92.6278 17.9429 92.6278ZM6.05714 87.9766C5.68229 87.9766 5.37143 88.2929 5.37143 88.6743V90.5348C5.37143 90.9162 5.68229 91.2325 6.05714 91.2325H17.9429C18.3177 91.2325 18.6286 90.9162 18.6286 90.5348V88.6743C18.6286 88.2929 18.3177 87.9766 17.9429 87.9766H6.05714Z" fill="#161616"/>
<path d="M8.34281 97.279C8.04109 97.279 7.74852 97.1581 7.53823 96.9349C7.48338 96.8883 7.43767 96.8232 7.39196 96.7581C7.35539 96.7023 7.31881 96.6279 7.29139 96.5628C7.25481 96.4883 7.23653 96.4139 7.21824 96.3395C7.2091 96.2651 7.19995 96.1907 7.19995 96.1162C7.19995 96.0418 7.2091 95.9674 7.21824 95.893C7.23653 95.8186 7.25481 95.7441 7.29139 95.6697C7.31881 95.6046 7.35539 95.5302 7.39196 95.4744C7.43767 95.4093 7.48338 95.3441 7.53823 95.2976C7.9588 94.8604 8.71767 94.8604 9.14738 95.2976C9.20224 95.3441 9.24795 95.4093 9.29366 95.4744C9.33023 95.5302 9.3668 95.6046 9.39423 95.6697C9.4308 95.7441 9.44909 95.8186 9.46738 95.893C9.47652 95.9674 9.48567 96.0418 9.48567 96.1162C9.48567 96.1907 9.47652 96.2651 9.46738 96.3395C9.44909 96.4139 9.4308 96.4883 9.39423 96.5628C9.3668 96.6279 9.33023 96.7023 9.29366 96.7581C9.24795 96.8232 9.20224 96.8883 9.14738 96.9349C8.9371 97.1581 8.64452 97.279 8.34281 97.279Z" fill="#161616"/>
<path d="M15.6573 97.279C15.3555 97.279 15.063 97.1581 14.8527 96.9349C14.6333 96.7209 14.5144 96.4232 14.5144 96.1162C14.5144 95.8093 14.6333 95.5116 14.8527 95.2976C15.2733 94.8604 16.0413 94.8604 16.4618 95.2976C16.6813 95.5116 16.8001 95.8093 16.8001 96.1162C16.8001 96.4232 16.6813 96.7209 16.4618 96.9349C16.2516 97.1581 15.959 97.279 15.6573 97.279Z" fill="#161616"/>
<path d="M14.2857 85.1861H9.71428C9.33942 85.1861 9.02856 84.8698 9.02856 84.4884C9.02856 84.1071 9.33942 83.7908 9.71428 83.7908H14.2857C14.6606 83.7908 14.9714 84.1071 14.9714 84.4884C14.9714 84.8698 14.6606 85.1861 14.2857 85.1861Z" fill="#161616"/>
</svg>
